<svg xmlns="http://www.w3.org/2000/svg" viewBox="0 0 1200 600"><defs><filter id="ink"><feTurbulence type="fractalNoise" baseFrequency=".035" numOctaves="3" seed="7" result="grain"/><feDisplacementMap in="SourceGraphic" in2="grain" scale="4"/></filter></defs><path fill="#cbd2bf" d="M0 0h1200v600H0Z"/><g filter="url(#ink)"><path d="M0 360L140 160 230 285 440 80 640 310 840 160 1200 360Z" fill="#667e713d"/><path d="M0 450L230 280 420 390 600 230 930 440 1200 250V600H0Z" fill="#56735e40"/><path d="M470 170 Q775 75 1080 170 L1050 190 H500Z" fill="#303b39"/><path d="M500 188h550v180H500Z" fill="#9eaaa0"/><path d="M530 200v165m490 -165v165" stroke="#33423e" stroke-width="12"/><path d="M500 400V275h550v130H500" fill="#6d6e5e"/><path d="M680 405V265h180v140" fill="#4b3933"/><path d="M470 415h620m-650 20h680" stroke="#475447" stroke-width="15"/><path d="M0 505q220-35 480 15t720-20v100H0Z" fill="#71887180"/></g></svg>